<svg width="654" height="654" viewBox="0 0 654 654" fill="none" xmlns="http://www.w3.org/2000/svg">
<circle cx="403.238" cy="262.034" r="131.145" transform="rotate(-130.436 403.238 262.034)" stroke="white" stroke-opacity="0.5" stroke-width="1.3"/>
<circle cx="391.349" cy="270.434" r="145.643" transform="rotate(-130.436 391.349 270.434)" stroke="white" stroke-opacity="0.5" stroke-width="1.3"/>
<path d="M269.757 148.066C336.483 91.2051 440.556 103.629 502.202 175.97C563.847 248.31 559.604 353.036 492.878 409.897C426.151 466.758 322.078 454.334 260.433 381.994C198.788 309.653 203.031 204.927 269.757 148.066Z" stroke="white" stroke-opacity="0.5" stroke-width="1.3"/>
<path d="M245.752 144.28C319.126 81.7538 433.564 95.4239 501.347 174.967C569.129 254.509 564.472 369.666 491.098 432.193C417.723 494.719 303.286 481.049 235.503 401.506C167.721 321.964 172.378 206.806 245.752 144.28Z" stroke="white" stroke-opacity="0.5" stroke-width="1.3"/>
<circle cx="357.094" cy="301.355" r="191.771" transform="rotate(-130.436 357.094 301.355)" stroke="white" stroke-opacity="0.5" stroke-width="1.3"/>
<circle cx="347.211" cy="308.045" r="203.632" transform="rotate(-130.436 347.211 308.045)" stroke="white" stroke-opacity="0.5" stroke-width="1.3"/>
<circle cx="334.099" cy="320.268" r="211.54" transform="rotate(-130.436 334.099 320.268)" stroke="white" stroke-opacity="0.5" stroke-width="1.3"/>
<circle cx="327" cy="327" r="231.309" transform="rotate(-130.436 327 327)" stroke="white" stroke-opacity="0.5" stroke-width="1.3"/>
</svg>
