<svg width="580" height="580" viewBox="0 0 580 580" fill="none" xmlns="http://www.w3.org/2000/svg">
<circle cx="193.774" cy="260.331" r="131.145" transform="rotate(106.975 193.774 260.331)" stroke="white" stroke-opacity="0.5" stroke-width="1.3"/>
<circle cx="207.255" cy="265.824" r="145.643" transform="rotate(106.975 207.255 265.824)" stroke="white" stroke-opacity="0.5" stroke-width="1.3"/>
<path d="M169.644 434.18C85.7964 408.586 40.2094 314.207 67.9572 223.304C95.7051 132.401 186.228 79.5696 270.076 105.164C353.924 130.758 399.511 225.137 371.763 316.04C344.015 406.943 253.492 459.775 169.644 434.18Z" stroke="white" stroke-opacity="0.5" stroke-width="1.3"/>
<path d="M179.384 456.445C87.1819 428.301 37.0621 324.518 67.5725 224.565C98.0829 124.612 197.617 66.5105 289.819 94.6549C382.022 122.799 432.141 226.582 401.631 326.535C371.121 426.488 271.586 484.59 179.384 456.445Z" stroke="white" stroke-opacity="0.5" stroke-width="1.3"/>
<circle cx="251.758" cy="278.031" r="191.771" transform="rotate(106.975 251.758 278.031)" stroke="white" stroke-opacity="0.5" stroke-width="1.3"/>
<circle cx="262.718" cy="282.755" r="203.632" transform="rotate(106.975 262.718 282.755)" stroke="white" stroke-opacity="0.5" stroke-width="1.3"/>
<circle cx="280.078" cy="287.219" r="211.54" transform="rotate(106.975 280.078 287.219)" stroke="white" stroke-opacity="0.5" stroke-width="1.3"/>
<circle cx="289.574" cy="289.574" r="231.309" transform="rotate(106.975 289.574 289.574)" stroke="white" stroke-opacity="0.5" stroke-width="1.3"/>
</svg>
