<svg width="90" height="90" viewBox="0 0 90 90" fill="none" xmlns="http://www.w3.org/2000/svg">
<path d="M45 82.5C24.2888 82.5 7.5 65.7113 7.5 45C7.5 24.2888 24.2888 7.5 45 7.5C65.7113 7.5 82.5 24.2888 82.5 45C82.5 65.7113 65.7113 82.5 45 82.5ZM45 75C52.9565 75 60.5871 71.8393 66.2132 66.2132C71.8393 60.5871 75 52.9565 75 45C75 37.0435 71.8393 29.4129 66.2132 23.7868C60.5871 18.1607 52.9565 15 45 15C37.0435 15 29.4129 18.1607 23.7868 23.7868C18.1607 29.4129 15 37.0435 15 45C15 52.9565 18.1607 60.5871 23.7868 66.2132C29.4129 71.8393 37.0435 75 45 75ZM39.8325 31.5562L58.1287 43.7513C58.3345 43.8882 58.5032 44.0738 58.6199 44.2917C58.7366 44.5095 58.7977 44.7529 58.7977 45C58.7977 45.2471 58.7366 45.4905 58.6199 45.7083C58.5032 45.9262 58.3345 46.1118 58.1287 46.2487L39.8288 58.4437C39.6031 58.5933 39.3412 58.679 39.0708 58.6918C38.8004 58.7046 38.5315 58.6439 38.2928 58.5163C38.054 58.3887 37.8543 58.1988 37.7147 57.9668C37.5751 57.7349 37.5009 57.4695 37.5 57.1987V32.8012C37.5005 32.5299 37.5746 32.2638 37.7143 32.0313C37.8541 31.7988 38.0543 31.6085 38.2937 31.4807C38.533 31.353 38.8025 31.2925 39.0735 31.3058C39.3445 31.3191 39.6068 31.4057 39.8325 31.5562Z" fill="white"/>
</svg>
