<svg width="2087" height="933" viewBox="0 0 2087 933" fill="none" xmlns="http://www.w3.org/2000/svg">
<path d="M36.0625 30.9359L51.4421 15.5563L56.6275 20.7418L41.248 36.1214L56.8043 51.6777L51.6778 56.8042L36.1214 41.2479L20.7419 56.6275L15.5564 51.442L30.936 36.0624L15.3796 20.5061L20.5062 15.3796L36.0625 30.9359Z" fill="white" fill-opacity="0.5"/>
<path d="M212.246 30.9359L227.626 15.5563L232.811 20.7418L217.432 36.1214L232.988 51.6777L227.862 56.8042L212.305 41.2479L196.926 56.6275L191.74 51.442L207.12 36.0624L191.563 20.5061L196.69 15.3796L212.246 30.9359Z" fill="white" fill-opacity="0.5"/>
<path d="M388.43 30.9359L403.81 15.5563L408.995 20.7418L393.616 36.1214L409.172 51.6777L404.045 56.8042L388.489 41.2479L373.11 56.6275L367.924 51.442L383.304 36.0624L367.747 20.5061L372.874 15.3796L388.43 30.9359Z" fill="white" fill-opacity="0.5"/>
<path d="M564.614 30.9359L579.993 15.5563L585.179 20.7418L569.799 36.1214L585.356 51.6777L580.229 56.8042L564.673 41.2479L549.293 56.6275L544.108 51.442L559.487 36.0624L543.931 20.5061L549.057 15.3796L564.614 30.9359Z" fill="white" fill-opacity="0.5"/>
<path d="M740.798 30.9359L756.177 15.5563L761.363 20.7418L745.983 36.1214L761.539 51.6777L756.413 56.8042L740.857 41.2479L725.477 56.6275L720.292 51.442L735.671 36.0624L720.115 20.5061L725.241 15.3796L740.798 30.9359Z" fill="white" fill-opacity="0.5"/>
<path d="M916.981 30.9359L932.361 15.5563L937.546 20.7418L922.167 36.1214L937.723 51.6777L932.597 56.8042L917.04 41.2479L901.661 56.6275L896.475 51.442L911.855 36.0624L896.299 20.5061L901.425 15.3796L916.981 30.9359Z" fill="white" fill-opacity="0.5"/>
<path d="M1093.17 30.9359L1108.54 15.5563L1113.73 20.7418L1098.35 36.1214L1113.91 51.6777L1108.78 56.8042L1093.22 41.2479L1077.84 56.6275L1072.66 51.442L1088.04 36.0624L1072.48 20.5061L1077.61 15.3796L1093.17 30.9359Z" fill="white" fill-opacity="0.5"/>
<path d="M1269.35 30.9359L1284.73 15.5563L1289.91 20.7418L1274.53 36.1214L1290.09 51.6777L1284.96 56.8042L1269.41 41.2479L1254.03 56.6275L1248.84 51.442L1264.22 36.0624L1248.67 20.5061L1253.79 15.3796L1269.35 30.9359Z" fill="white" fill-opacity="0.5"/>
<path d="M1445.53 30.9359L1460.91 15.5563L1466.1 20.7418L1450.72 36.1214L1466.27 51.6777L1461.15 56.8042L1445.59 41.2479L1430.21 56.6275L1425.03 51.442L1440.41 36.0624L1424.85 20.5061L1429.98 15.3796L1445.53 30.9359Z" fill="white" fill-opacity="0.5"/>
<path d="M1621.72 30.9359L1637.1 15.5563L1642.28 20.7418L1626.9 36.1214L1642.46 51.6777L1637.33 56.8042L1621.78 41.2479L1606.4 56.6275L1601.21 51.442L1616.59 36.0624L1601.03 20.5061L1606.16 15.3796L1621.72 30.9359Z" fill="white" fill-opacity="0.5"/>
<path d="M1797.9 30.9359L1813.28 15.5563L1818.47 20.7418L1803.09 36.1214L1818.64 51.6777L1813.52 56.8042L1797.96 41.2479L1782.58 56.6275L1777.39 51.442L1792.77 36.0624L1777.22 20.5061L1782.34 15.3796L1797.9 30.9359Z" fill="white" fill-opacity="0.5"/>
<path d="M1974.08 30.9359L1989.46 15.5563L1994.65 20.7418L1979.27 36.1214L1994.83 51.6777L1989.7 56.8042L1974.14 41.2479L1958.76 56.6275L1953.58 51.442L1968.96 36.0624L1953.4 20.5061L1958.53 15.3796L1974.08 30.9359Z" fill="white" fill-opacity="0.5"/>
<path d="M36.0625 207.12L51.4421 191.74L56.6275 196.925L41.248 212.305L56.8043 227.861L51.6778 232.988L36.1214 217.431L20.7419 232.811L15.5564 227.626L30.936 212.246L15.3796 196.69L20.5062 191.563L36.0625 207.12Z" fill="white" fill-opacity="0.5"/>
<path d="M212.246 207.12L227.626 191.74L232.811 196.925L217.432 212.305L232.988 227.861L227.861 232.988L212.305 217.431L196.925 232.811L191.74 227.626L207.12 212.246L191.563 196.69L196.69 191.563L212.246 207.12Z" fill="white" fill-opacity="0.5"/>
<path d="M388.43 207.12L403.81 191.74L408.995 196.925L393.616 212.305L409.172 227.861L404.045 232.988L388.489 217.431L373.11 232.811L367.924 227.626L383.304 212.246L367.747 196.69L372.874 191.563L388.43 207.12Z" fill="white" fill-opacity="0.5"/>
<path d="M564.614 207.12L579.993 191.74L585.179 196.925L569.799 212.305L585.356 227.861L580.229 232.988L564.673 217.431L549.293 232.811L544.108 227.626L559.487 212.246L543.931 196.69L549.057 191.563L564.614 207.12Z" fill="white" fill-opacity="0.5"/>
<path d="M740.798 207.12L756.177 191.74L761.363 196.925L745.983 212.305L761.539 227.861L756.413 232.988L740.857 217.431L725.477 232.811L720.292 227.626L735.671 212.246L720.115 196.69L725.241 191.563L740.798 207.12Z" fill="white" fill-opacity="0.5"/>
<path d="M916.981 207.12L932.361 191.74L937.546 196.925L922.167 212.305L937.723 227.861L932.597 232.988L917.04 217.431L901.661 232.811L896.475 227.626L911.855 212.246L896.299 196.69L901.425 191.563L916.981 207.12Z" fill="white" fill-opacity="0.5"/>
<path d="M1093.17 207.12L1108.54 191.74L1113.73 196.925L1098.35 212.305L1113.91 227.861L1108.78 232.988L1093.22 217.431L1077.84 232.811L1072.66 227.626L1088.04 212.246L1072.48 196.69L1077.61 191.563L1093.17 207.12Z" fill="white" fill-opacity="0.5"/>
<path d="M1269.35 207.12L1284.73 191.74L1289.91 196.925L1274.53 212.305L1290.09 227.861L1284.96 232.988L1269.41 217.431L1254.03 232.811L1248.84 227.626L1264.22 212.246L1248.67 196.69L1253.79 191.563L1269.35 207.12Z" fill="white" fill-opacity="0.5"/>
<path d="M1445.53 207.12L1460.91 191.74L1466.1 196.925L1450.72 212.305L1466.27 227.861L1461.15 232.988L1445.59 217.431L1430.21 232.811L1425.03 227.626L1440.41 212.246L1424.85 196.69L1429.98 191.563L1445.53 207.12Z" fill="white" fill-opacity="0.5"/>
<path d="M1621.72 207.12L1637.1 191.74L1642.28 196.925L1626.9 212.305L1642.46 227.861L1637.33 232.988L1621.78 217.431L1606.4 232.811L1601.21 227.626L1616.59 212.246L1601.03 196.69L1606.16 191.563L1621.72 207.12Z" fill="white" fill-opacity="0.5"/>
<path d="M1797.9 207.12L1813.28 191.74L1818.47 196.925L1803.09 212.305L1818.64 227.861L1813.52 232.988L1797.96 217.431L1782.58 232.811L1777.39 227.626L1792.77 212.246L1777.22 196.69L1782.34 191.563L1797.9 207.12Z" fill="white" fill-opacity="0.5"/>
<path d="M1974.08 207.12L1989.46 191.74L1994.65 196.925L1979.27 212.305L1994.83 227.861L1989.7 232.988L1974.14 217.431L1958.76 232.811L1953.58 227.626L1968.96 212.246L1953.4 196.69L1958.53 191.563L1974.08 207.12Z" fill="white" fill-opacity="0.5"/>
<path d="M36.0625 383.304L51.4421 367.924L56.6275 373.109L41.248 388.489L56.8043 404.045L51.6778 409.172L36.1214 393.616L20.7419 408.995L15.5564 403.81L30.936 388.43L15.3796 372.874L20.5062 367.747L36.0625 383.304Z" fill="white" fill-opacity="0.5"/>
<path d="M212.246 383.304L227.626 367.924L232.811 373.109L217.432 388.489L232.988 404.045L227.861 409.172L212.305 393.616L196.925 408.995L191.74 403.81L207.12 388.43L191.563 372.874L196.69 367.747L212.246 383.304Z" fill="white" fill-opacity="0.5"/>
<path d="M388.43 383.304L403.81 367.924L408.995 373.109L393.616 388.489L409.172 404.045L404.045 409.172L388.489 393.616L373.11 408.995L367.924 403.81L383.304 388.43L367.747 372.874L372.874 367.747L388.43 383.304Z" fill="white" fill-opacity="0.5"/>
<path d="M564.614 383.304L579.993 367.924L585.179 373.109L569.799 388.489L585.356 404.045L580.229 409.172L564.673 393.616L549.293 408.995L544.108 403.81L559.487 388.43L543.931 372.874L549.057 367.747L564.614 383.304Z" fill="white" fill-opacity="0.5"/>
<path d="M740.798 383.304L756.177 367.924L761.363 373.109L745.983 388.489L761.539 404.045L756.413 409.172L740.857 393.616L725.477 408.995L720.292 403.81L735.671 388.43L720.115 372.874L725.241 367.747L740.798 383.304Z" fill="white" fill-opacity="0.5"/>
<path d="M916.981 383.304L932.361 367.924L937.546 373.109L922.167 388.489L937.723 404.045L932.597 409.172L917.04 393.616L901.661 408.995L896.475 403.81L911.855 388.43L896.299 372.874L901.425 367.747L916.981 383.304Z" fill="white" fill-opacity="0.5"/>
<path d="M1093.17 383.304L1108.54 367.924L1113.73 373.109L1098.35 388.489L1113.91 404.045L1108.78 409.172L1093.22 393.616L1077.84 408.995L1072.66 403.81L1088.04 388.43L1072.48 372.874L1077.61 367.747L1093.17 383.304Z" fill="white" fill-opacity="0.5"/>
<path d="M1269.35 383.304L1284.73 367.924L1289.91 373.109L1274.53 388.489L1290.09 404.045L1284.96 409.172L1269.41 393.616L1254.03 408.995L1248.84 403.81L1264.22 388.43L1248.67 372.874L1253.79 367.747L1269.35 383.304Z" fill="white" fill-opacity="0.5"/>
<path d="M1445.53 383.304L1460.91 367.924L1466.1 373.109L1450.72 388.489L1466.27 404.045L1461.15 409.172L1445.59 393.616L1430.21 408.995L1425.03 403.81L1440.41 388.43L1424.85 372.874L1429.98 367.747L1445.53 383.304Z" fill="white" fill-opacity="0.5"/>
<path d="M1621.72 383.304L1637.1 367.924L1642.28 373.109L1626.9 388.489L1642.46 404.045L1637.33 409.172L1621.78 393.616L1606.4 408.995L1601.21 403.81L1616.59 388.43L1601.03 372.874L1606.16 367.747L1621.72 383.304Z" fill="white" fill-opacity="0.5"/>
<path d="M1797.9 383.304L1813.28 367.924L1818.47 373.109L1803.09 388.489L1818.64 404.045L1813.52 409.172L1797.96 393.616L1782.58 408.995L1777.39 403.81L1792.77 388.43L1777.22 372.874L1782.34 367.747L1797.9 383.304Z" fill="white" fill-opacity="0.5"/>
<path d="M1974.08 383.304L1989.46 367.924L1994.65 373.109L1979.27 388.489L1994.83 404.045L1989.7 409.172L1974.14 393.616L1958.76 408.995L1953.58 403.81L1968.96 388.43L1953.4 372.874L1958.53 367.747L1974.08 383.304Z" fill="white" fill-opacity="0.5"/>
<path d="M36.0625 559.487L51.4421 544.108L56.6275 549.293L41.248 564.673L56.8043 580.229L51.6778 585.356L36.1214 569.799L20.7419 585.179L15.5564 579.993L30.936 564.614L15.3796 549.057L20.5062 543.931L36.0625 559.487Z" fill="white" fill-opacity="0.5"/>
<path d="M212.246 559.487L227.626 544.108L232.811 549.293L217.432 564.673L232.988 580.229L227.862 585.356L212.305 569.799L196.926 585.179L191.74 579.993L207.12 564.614L191.563 549.057L196.69 543.931L212.246 559.487Z" fill="white" fill-opacity="0.5"/>
<path d="M388.43 559.487L403.81 544.108L408.995 549.293L393.616 564.673L409.172 580.229L404.045 585.356L388.489 569.799L373.11 585.179L367.924 579.993L383.304 564.614L367.747 549.057L372.874 543.931L388.43 559.487Z" fill="white" fill-opacity="0.5"/>
<path d="M564.614 559.487L579.993 544.108L585.179 549.293L569.799 564.673L585.356 580.229L580.229 585.356L564.673 569.799L549.293 585.179L544.108 579.993L559.487 564.614L543.931 549.057L549.057 543.931L564.614 559.487Z" fill="white" fill-opacity="0.5"/>
<path d="M740.798 559.487L756.177 544.108L761.363 549.293L745.983 564.673L761.539 580.229L756.413 585.356L740.857 569.799L725.477 585.179L720.292 579.993L735.671 564.614L720.115 549.057L725.241 543.931L740.798 559.487Z" fill="white" fill-opacity="0.5"/>
<path d="M916.981 559.487L932.361 544.108L937.546 549.293L922.167 564.673L937.723 580.229L932.597 585.356L917.04 569.799L901.661 585.179L896.475 579.993L911.855 564.614L896.299 549.057L901.425 543.931L916.981 559.487Z" fill="white" fill-opacity="0.5"/>
<path d="M1093.17 559.487L1108.54 544.108L1113.73 549.293L1098.35 564.673L1113.91 580.229L1108.78 585.356L1093.22 569.799L1077.84 585.179L1072.66 579.993L1088.04 564.614L1072.48 549.057L1077.61 543.931L1093.17 559.487Z" fill="white" fill-opacity="0.5"/>
<path d="M1269.35 559.487L1284.73 544.108L1289.91 549.293L1274.53 564.673L1290.09 580.229L1284.96 585.356L1269.41 569.799L1254.03 585.179L1248.84 579.993L1264.22 564.614L1248.67 549.057L1253.79 543.931L1269.35 559.487Z" fill="white" fill-opacity="0.5"/>
<path d="M1445.53 559.487L1460.91 544.108L1466.1 549.293L1450.72 564.673L1466.27 580.229L1461.15 585.356L1445.59 569.799L1430.21 585.179L1425.03 579.993L1440.41 564.614L1424.85 549.057L1429.98 543.931L1445.53 559.487Z" fill="white" fill-opacity="0.5"/>
<path d="M1621.72 559.487L1637.1 544.108L1642.28 549.293L1626.9 564.673L1642.46 580.229L1637.33 585.356L1621.78 569.799L1606.4 585.179L1601.21 579.993L1616.59 564.614L1601.03 549.057L1606.16 543.931L1621.72 559.487Z" fill="white" fill-opacity="0.5"/>
<path d="M1797.9 559.487L1813.28 544.108L1818.47 549.293L1803.09 564.673L1818.64 580.229L1813.52 585.356L1797.96 569.799L1782.58 585.179L1777.39 579.993L1792.77 564.614L1777.22 549.057L1782.34 543.931L1797.9 559.487Z" fill="white" fill-opacity="0.5"/>
<path d="M1974.08 559.487L1989.46 544.108L1994.65 549.293L1979.27 564.673L1994.83 580.229L1989.7 585.356L1974.14 569.799L1958.76 585.179L1953.58 579.993L1968.96 564.614L1953.4 549.057L1958.53 543.931L1974.08 559.487Z" fill="white" fill-opacity="0.5"/>
<path d="M36.0625 735.671L51.4421 720.292L56.6275 725.477L41.248 740.857L56.8043 756.413L51.6778 761.54L36.1214 745.983L20.7419 761.363L15.5564 756.177L30.936 740.798L15.3796 725.241L20.5062 720.115L36.0625 735.671Z" fill="white" fill-opacity="0.5"/>
<path d="M212.246 735.671L227.626 720.292L232.811 725.477L217.432 740.857L232.988 756.413L227.862 761.54L212.305 745.983L196.926 761.363L191.74 756.177L207.12 740.798L191.563 725.241L196.69 720.115L212.246 735.671Z" fill="white" fill-opacity="0.5"/>
<path d="M388.43 735.671L403.81 720.292L408.995 725.477L393.616 740.857L409.172 756.413L404.045 761.54L388.489 745.983L373.11 761.363L367.924 756.177L383.304 740.798L367.747 725.241L372.874 720.115L388.43 735.671Z" fill="white" fill-opacity="0.5"/>
<path d="M564.614 735.671L579.993 720.292L585.179 725.477L569.799 740.857L585.356 756.413L580.229 761.54L564.673 745.983L549.293 761.363L544.108 756.177L559.487 740.798L543.931 725.241L549.057 720.115L564.614 735.671Z" fill="white" fill-opacity="0.5"/>
<path d="M740.798 735.671L756.177 720.292L761.363 725.477L745.983 740.857L761.539 756.413L756.413 761.54L740.857 745.983L725.477 761.363L720.292 756.177L735.671 740.798L720.115 725.241L725.241 720.115L740.798 735.671Z" fill="white" fill-opacity="0.5"/>
<path d="M916.981 735.671L932.361 720.292L937.546 725.477L922.167 740.857L937.723 756.413L932.597 761.54L917.04 745.983L901.661 761.363L896.475 756.177L911.855 740.798L896.299 725.241L901.425 720.115L916.981 735.671Z" fill="white" fill-opacity="0.5"/>
<path d="M1093.17 735.671L1108.54 720.292L1113.73 725.477L1098.35 740.857L1113.91 756.413L1108.78 761.54L1093.22 745.983L1077.84 761.363L1072.66 756.177L1088.04 740.798L1072.48 725.241L1077.61 720.115L1093.17 735.671Z" fill="white" fill-opacity="0.5"/>
<path d="M1269.35 735.671L1284.73 720.292L1289.91 725.477L1274.53 740.857L1290.09 756.413L1284.96 761.54L1269.41 745.983L1254.03 761.363L1248.84 756.177L1264.22 740.798L1248.67 725.241L1253.79 720.115L1269.35 735.671Z" fill="white" fill-opacity="0.5"/>
<path d="M1445.53 735.671L1460.91 720.292L1466.1 725.477L1450.72 740.857L1466.27 756.413L1461.15 761.54L1445.59 745.983L1430.21 761.363L1425.03 756.177L1440.41 740.798L1424.85 725.241L1429.98 720.115L1445.53 735.671Z" fill="white" fill-opacity="0.5"/>
<path d="M1621.72 735.671L1637.1 720.292L1642.28 725.477L1626.9 740.857L1642.46 756.413L1637.33 761.54L1621.78 745.983L1606.4 761.363L1601.21 756.177L1616.59 740.798L1601.03 725.241L1606.16 720.115L1621.72 735.671Z" fill="white" fill-opacity="0.5"/>
<path d="M1797.9 735.671L1813.28 720.292L1818.47 725.477L1803.09 740.857L1818.64 756.413L1813.52 761.54L1797.96 745.983L1782.58 761.363L1777.39 756.177L1792.77 740.798L1777.22 725.241L1782.34 720.115L1797.9 735.671Z" fill="white" fill-opacity="0.5"/>
<path d="M1974.08 735.671L1989.46 720.292L1994.65 725.477L1979.27 740.857L1994.83 756.413L1989.7 761.54L1974.14 745.983L1958.76 761.363L1953.58 756.177L1968.96 740.798L1953.4 725.241L1958.53 720.115L1974.08 735.671Z" fill="white" fill-opacity="0.5"/>
</svg>
