<svg width="34" height="34" viewBox="0 0 34 34" fill="none" xmlns="http://www.w3.org/2000/svg">
<path d="M33.9834 8.7814C33.831 12.0802 31.5197 16.597 27.0496 22.3318C22.427 28.3204 18.5156 31.3147 15.3154 31.3147C13.3343 31.3147 11.658 29.4877 10.2864 25.8336L7.54341 15.785C6.52746 12.131 5.4353 10.3039 4.26698 10.3039C4.013 10.3039 3.12403 10.8368 1.60009 11.9026L0 9.84717C1.66213 8.38802 3.31309 6.91621 4.95272 5.43187C7.18779 3.50333 8.86411 2.48834 9.98164 2.38682C12.6231 2.13307 14.2486 3.93473 14.8582 7.79176C15.5185 11.9533 15.9757 14.5416 16.2296 15.5566C16.9916 19.0077 17.8298 20.7332 18.7441 20.7332C19.4553 20.7332 20.522 19.6167 21.9443 17.3837C23.3667 15.1506 24.1286 13.4505 24.2302 12.2832C24.4334 10.3547 23.6714 9.39044 21.9443 9.39044C21.1316 9.39044 20.2934 9.56809 19.4299 9.92333C21.1062 4.493 24.3064 1.85397 29.0306 2.00623C32.5356 2.10775 34.1865 4.36616 33.9833 8.78146L33.9834 8.7814Z" fill="white"/>
</svg>
