<svg width="35" height="34" viewBox="0 0 35 34" fill="none" xmlns="http://www.w3.org/2000/svg">
<path d="M4.90142 4.24902H30.3973C30.773 4.24902 31.1333 4.39825 31.3989 4.66389C31.6645 4.92952 31.8138 5.2898 31.8138 5.66546V28.3285C31.8138 28.7042 31.6645 29.0644 31.3989 29.3301C31.1333 29.5957 30.773 29.7449 30.3973 29.7449H4.90142C4.52576 29.7449 4.16548 29.5957 3.89985 29.3301C3.63422 29.0644 3.48499 28.7042 3.48499 28.3285V5.66546C3.48499 5.2898 3.63422 4.92952 3.89985 4.66389C4.16548 4.39825 4.52576 4.24902 4.90142 4.24902ZM28.9809 10.2519L17.7514 20.3086L6.31786 10.2207V26.9121H28.9809V10.2519ZM7.04166 7.0819L17.7358 16.5182L28.2755 7.0819H7.04166Z" fill="white"/>
</svg>
